<?xml version="1.0" encoding="utf-8"?>
<!-- Generator: Adobe Illustrator 23.0.0, SVG Export Plug-In . SVG Version: 6.00 Build 0)  -->
<svg version="1.1" id="Layer_1" xmlns="http://www.w3.org/2000/svg" xmlns:xlink="http://www.w3.org/1999/xlink" x="0px" y="0px"
	 viewBox="0 0 660.8 638" style="enable-background:new 0 0 660.8 638;" xml:space="preserve">
<style type="text/css">
	.st0{fill:#2D2828;}
</style>
<g>
	<path class="st0" d="M240,623.5L240,623.5c0,0,0,0.1,0,0.1c0.6,2,1.7,3.8,2.9,5.6c0.4,0.5,0.8,1,1.2,1.5c1,1.2,2.2,2.3,3.6,3.2
		c0.5,0.4,0.9,0.7,1.5,1.1c0.3,0.2,0.5,0.4,0.7,0.5c1.7,0.9,3.5,1.6,5.2,2c0.2,0.1,0.4,0,0.6,0.1c2,0.4,4,0.5,5.9,0.3
		c0.3,0,0.5,0.1,0.8,0l126.1-18.4c9.7-1.4,15.3-10.1,12.5-19.5c-2.7-9.3-12.8-15.8-22.5-14.4l-68,9.9c41.7-50.5,64-111.9,65-114.8
		c74.2-186.1-6.3-401-179.3-478.9c-8.6-3.9-17.9-1.5-22.1,5.3c-0.4,0.7-0.8,1.5-1.2,2.3c-3.4,8.4,1.6,18.7,11.1,23
		c154.2,69.4,224.7,263.6,157,433.4c-0.3,0.8-23.2,64.3-64.4,111.8l1.8-79.8c0.2-9.4-7.8-18-17.8-19.4c-10.1-1.4-18.3,5-18.6,14.4
		l-2.9,125.8C239.2,620.2,239.5,621.9,240,623.5L240,623.5z"/>
</g>
</svg>
